<svg width="20" height="40" viewBox="0 0 20 40" fill="none" xmlns="http://www.w3.org/2000/svg">
<path fill-rule="evenodd" clip-rule="evenodd" d="M19.9883 20L19.9883 30C19.9883 35.5333 15.5232 40 9.99175 40L9.99175 30C9.99175 24.4668 14.4566 20.0002 19.9878 20L19.9883 20ZM19.9878 20C14.4564 20 9.99132 15.5333 9.99132 10L9.99132 -4.36981e-07C15.5227 -1.95195e-07 19.9878 4.46667 19.9878 10L19.9878 20Z" fill="#172734"/>
<path fill-rule="evenodd" clip-rule="evenodd" d="M-0.000432889 20L-0.000432452 10L-0.00086542 10C-0.000865178 4.46667 4.46425 -2.41805e-07 9.99566 0L9.99566 10L9.99609 10L9.99609 20L9.99566 20L9.99566 30L9.99566 40C4.46425 40 -0.000865582 35.5333 -0.00086534 30L-0.000864903 20L-0.000432889 20Z" fill="#172734"/>
</svg>
