<svg width="94" height="348" viewBox="0 0 94 348" fill="none" xmlns="http://www.w3.org/2000/svg">
<path opacity="0.5" d="M2.42024 5.61737C1.65663 5.93861 1.29802 6.81805 1.61926 7.58166L6.85411 20.0254C7.17535 20.789 8.05479 21.1476 8.8184 20.8264C9.58201 20.5051 9.94062 19.6257 9.61938 18.8621L4.96618 7.80099L16.0273 3.14779C16.7909 2.82655 17.1495 1.94711 16.8283 1.1835C16.507 0.419895 15.6276 0.0612815 14.864 0.382518L2.42024 5.61737ZM1.64072 347.357C70.4028 314.998 96.7658 240.008 93.1238 168.174C91.3013 132.227 81.9697 96.9467 66.5914 67.9841C51.2192 39.033 29.7417 16.2839 3.56828 5.61105L2.43551 8.38897C27.7612 18.7161 48.783 40.842 63.9417 69.3909C79.0942 97.9283 88.3251 132.773 90.1276 168.326C93.7358 239.492 67.5998 313.002 0.363321 344.643L1.64072 347.357Z" fill="#0066CC"/>
</svg>
