<svg width="31" height="109" viewBox="0 0 31 109" fill="none" xmlns="http://www.w3.org/2000/svg">
<path opacity="0.5" d="M29.4999 109C30.3284 109 30.9999 108.328 30.9999 107.5V94C30.9999 93.1716 30.3284 92.5 29.4999 92.5C28.6715 92.5 27.9999 93.1716 27.9999 94V106H15.9999C15.1715 106 14.4999 106.672 14.4999 107.5C14.4999 108.328 15.1715 109 15.9999 109H29.4999ZM24.5784 0.817073C9.4967 12.5762 0.456888 29.5679 0.238425 48.6578C0.0200033 67.744 8.61785 88.7392 28.4393 108.561L30.5606 106.439C11.182 87.0608 3.03093 66.806 3.23823 48.6922C3.44548 30.5821 12.006 14.4238 26.423 3.18293L24.5784 0.817073Z" fill="#0066CC"/>
</svg>
